<svg width="96" height="38" viewBox="0 0 96 38" fill="none" xmlns="http://www.w3.org/2000/svg">
<path d="M24.1008 31.6279V22.3468H27.1098V34.7119H0V22.3468H3.00901V31.6279H24.1008Z" fill="#BBC0C4"/>
<path d="M6.01906 28.5146H13.5559H21.0928V25.4307H6.01906V28.5146Z" fill="#BBC0C4"/>
<path d="M6.01906 24.0839H13.5559H21.0928V21H6.01906V24.0839Z" fill="#BBC0C4"/>
<path d="M6.01906 19.6678H13.5559H21.0928V16.5839H6.01906V19.6678Z" fill="#BBC0C4"/>
<path d="M6.01906 15.5839H13.5559H21.0928V12.5H6.01906V15.5839Z" fill="#BBC0C4"/>
<path d="M6.01906 11.0839H13.5559H21.0928V8.00001H6.01906V11.0839Z" fill="#BBC0C4"/>
<path d="M37.5 12.1445V22H34.2188V9.32031H37.3125L37.5 12.1445ZM40.4883 9.22656L40.4414 12.4961C40.293 12.4648 40.1133 12.4414 39.9023 12.4258C39.6992 12.4102 39.5195 12.4023 39.3633 12.4023C38.9961 12.4023 38.6836 12.4609 38.4258 12.5781C38.168 12.6875 37.9531 12.8555 37.7812 13.082C37.6172 13.3008 37.4922 13.5742 37.4062 13.9023C37.3203 14.2305 37.2695 14.6016 37.2539 15.0156L36.6328 14.7812C36.6328 13.9531 36.6953 13.1953 36.8203 12.5078C36.9531 11.8125 37.1484 11.2109 37.4062 10.7031C37.6641 10.1875 37.9727 9.78906 38.332 9.50781C38.6992 9.22656 39.1133 9.08594 39.5742 9.08594C39.7305 9.08594 39.8945 9.10156 40.0664 9.13281C40.2461 9.15625 40.3867 9.1875 40.4883 9.22656ZM47.0391 22.2344C46.1719 22.2344 45.4023 22.1016 44.7305 21.8359C44.0664 21.5703 43.5039 21.1875 43.043 20.6875C42.582 20.1797 42.2305 19.5664 41.9883 18.8477C41.7461 18.1289 41.625 17.3086 41.625 16.3867V15.3438C41.625 14.3125 41.7422 13.4102 41.9766 12.6367C42.2109 11.8555 42.543 11.1992 42.9727 10.668C43.4023 10.1367 43.9297 9.74219 44.5547 9.48438C45.1875 9.21875 45.9023 9.08594 46.6992 9.08594C47.4961 9.08594 48.1953 9.21875 48.7969 9.48438C49.4062 9.74219 49.9102 10.1328 50.3086 10.6562C50.707 11.1719 51.0078 11.8125 51.2109 12.5781C51.4141 13.3438 51.5156 14.2344 51.5156 15.25V16.75H43.0195V14.4414H48.293V14.1484C48.293 13.6328 48.2383 13.2031 48.1289 12.8594C48.0195 12.5078 47.8477 12.2461 47.6133 12.0742C47.3789 11.9023 47.0664 11.8164 46.6758 11.8164C46.3477 11.8164 46.0703 11.8828 45.8438 12.0156C45.6172 12.1484 45.4375 12.3555 45.3047 12.6367C45.1719 12.918 45.0742 13.2852 45.0117 13.7383C44.9492 14.1836 44.918 14.7188 44.918 15.3438V16.3867C44.918 16.9727 44.9688 17.4648 45.0703 17.8633C45.1719 18.2539 45.3203 18.5742 45.5156 18.8242C45.7188 19.0664 45.9648 19.2422 46.2539 19.3516C46.543 19.4531 46.8789 19.5039 47.2617 19.5039C47.8398 19.5039 48.3594 19.4023 48.8203 19.1992C49.2891 18.9883 49.6875 18.7031 50.0156 18.3438L51.3281 20.3359C51.1016 20.6328 50.7891 20.9297 50.3906 21.2266C49.9922 21.5234 49.5156 21.7656 48.9609 21.9531C48.4062 22.1406 47.7656 22.2344 47.0391 22.2344ZM59.5547 19.1992V4H62.8477V22L59.8711 22.0117L59.5547 19.1992ZM52.9805 16.1055V15.2617C52.9805 14.2305 53.0664 13.3281 53.2383 12.5547C53.418 11.7812 53.6836 11.1367 54.0352 10.6211C54.3867 10.1055 54.8164 9.72266 55.3242 9.47266C55.8398 9.21484 56.4297 9.08594 57.0938 9.08594C57.6953 9.08594 58.2227 9.23828 58.6758 9.54297C59.1367 9.83984 59.5273 10.2578 59.8477 10.7969C60.168 11.3359 60.4258 11.9727 60.6211 12.707C60.8164 13.4414 60.9531 14.2461 61.0312 15.1211V16.3398C60.9375 17.168 60.793 17.9414 60.5977 18.6602C60.4102 19.3789 60.1523 20.0039 59.8242 20.5352C59.5039 21.0664 59.1172 21.4844 58.6641 21.7891C58.2109 22.0859 57.6836 22.2344 57.082 22.2344C56.418 22.2344 55.8281 22.1016 55.3125 21.8359C54.8047 21.5703 54.375 21.1797 54.0234 20.6641C53.6797 20.1406 53.418 19.5 53.2383 18.7422C53.0664 17.9766 52.9805 17.0977 52.9805 16.1055ZM56.2617 15.2617V16.1055C56.2617 16.6992 56.2891 17.2109 56.3438 17.6406C56.4062 18.0625 56.5039 18.4102 56.6367 18.6836C56.7773 18.9492 56.9609 19.1484 57.1875 19.2812C57.4141 19.4062 57.6953 19.4688 58.0312 19.4688C58.4688 19.4688 58.8242 19.3594 59.0977 19.1406C59.3711 18.9141 59.5742 18.6055 59.707 18.2148C59.8477 17.8164 59.9258 17.3594 59.9414 16.8438V14.6289C59.9258 14.1992 59.875 13.8125 59.7891 13.4688C59.7031 13.125 59.582 12.832 59.4258 12.5898C59.2695 12.3477 59.0742 12.1602 58.8398 12.0273C58.6133 11.8945 58.3477 11.8281 58.043 11.8281C57.7148 11.8281 57.4336 11.8945 57.1992 12.0273C56.9727 12.1602 56.793 12.3672 56.6602 12.6484C56.5273 12.9219 56.4258 13.2773 56.3555 13.7148C56.293 14.1445 56.2617 14.6602 56.2617 15.2617ZM65.2266 16.2695V15.0625C65.2266 14.0781 65.3516 13.2148 65.6016 12.4727C65.8516 11.7227 66.1992 11.0977 66.6445 10.5977C67.0898 10.0977 67.6094 9.72266 68.2031 9.47266C68.7969 9.21484 69.4336 9.08594 70.1133 9.08594C70.8086 9.08594 71.4531 9.21484 72.0469 9.47266C72.6406 9.72266 73.1602 10.0977 73.6055 10.5977C74.0586 11.0977 74.4102 11.7227 74.6602 12.4727C74.9102 13.2148 75.0352 14.0781 75.0352 15.0625V16.2695C75.0352 17.2539 74.9102 18.1211 74.6602 18.8711C74.4102 19.6133 74.0625 20.2344 73.6172 20.7344C73.1719 21.2344 72.6523 21.6094 72.0586 21.8594C71.4648 22.1094 70.8242 22.2344 70.1367 22.2344C69.4492 22.2344 68.8086 22.1094 68.2148 21.8594C67.6211 21.6094 67.0977 21.2344 66.6445 20.7344C66.1992 20.2344 65.8516 19.6133 65.6016 18.8711C65.3516 18.1211 65.2266 17.2539 65.2266 16.2695ZM67.3008 15.0625V16.2695C67.3008 16.9648 67.3711 17.5742 67.5117 18.0977C67.6523 18.6211 67.8516 19.0586 68.1094 19.4102C68.3672 19.7617 68.668 20.0273 69.0117 20.207C69.3555 20.3789 69.7305 20.4648 70.1367 20.4648C70.6055 20.4648 71.0156 20.3789 71.3672 20.207C71.7266 20.0273 72.0234 19.7617 72.2578 19.4102C72.4922 19.0586 72.668 18.6211 72.7852 18.0977C72.9023 17.5742 72.9609 16.9648 72.9609 16.2695V15.0625C72.9609 14.3672 72.8906 13.7617 72.75 13.2461C72.6094 12.7227 72.4102 12.2852 72.1523 11.9336C71.8945 11.5742 71.5898 11.3086 71.2383 11.1367C70.8945 10.957 70.5195 10.8672 70.1133 10.8672C69.7148 10.8672 69.3438 10.957 69 11.1367C68.6562 11.3086 68.3555 11.5742 68.0977 11.9336C67.8477 12.2852 67.6523 12.7227 67.5117 13.2461C67.3711 13.7617 67.3008 14.3672 67.3008 15.0625ZM77.2734 16.2695V15.0625C77.2734 14.0781 77.3984 13.2148 77.6484 12.4727C77.8984 11.7227 78.2461 11.0977 78.6914 10.5977C79.1367 10.0977 79.6562 9.72266 80.25 9.47266C80.8438 9.21484 81.4805 9.08594 82.1602 9.08594C82.8555 9.08594 83.5 9.21484 84.0938 9.47266C84.6875 9.72266 85.207 10.0977 85.6523 10.5977C86.1055 11.0977 86.457 11.7227 86.707 12.4727C86.957 13.2148 87.082 14.0781 87.082 15.0625V16.2695C87.082 17.2539 86.957 18.1211 86.707 18.8711C86.457 19.6133 86.1094 20.2344 85.6641 20.7344C85.2188 21.2344 84.6992 21.6094 84.1055 21.8594C83.5117 22.1094 82.8711 22.2344 82.1836 22.2344C81.4961 22.2344 80.8555 22.1094 80.2617 21.8594C79.668 21.6094 79.1445 21.2344 78.6914 20.7344C78.2461 20.2344 77.8984 19.6133 77.6484 18.8711C77.3984 18.1211 77.2734 17.2539 77.2734 16.2695ZM79.3477 15.0625V16.2695C79.3477 16.9648 79.418 17.5742 79.5586 18.0977C79.6992 18.6211 79.8984 19.0586 80.1562 19.4102C80.4141 19.7617 80.7148 20.0273 81.0586 20.207C81.4023 20.3789 81.7773 20.4648 82.1836 20.4648C82.6523 20.4648 83.0625 20.3789 83.4141 20.207C83.7734 20.0273 84.0703 19.7617 84.3047 19.4102C84.5391 19.0586 84.7148 18.6211 84.832 18.0977C84.9492 17.5742 85.0078 16.9648 85.0078 16.2695V15.0625C85.0078 14.3672 84.9375 13.7617 84.7969 13.2461C84.6562 12.7227 84.457 12.2852 84.1992 11.9336C83.9414 11.5742 83.6367 11.3086 83.2852 11.1367C82.9414 10.957 82.5664 10.8672 82.1602 10.8672C81.7617 10.8672 81.3906 10.957 81.0469 11.1367C80.7031 11.3086 80.4023 11.5742 80.1445 11.9336C79.8945 12.2852 79.6992 12.7227 79.5586 13.2461C79.418 13.7617 79.3477 14.3672 79.3477 15.0625ZM91.8281 11.3125V22H89.7539V9.32031H91.7578L91.8281 11.3125ZM94.9805 9.25L94.9922 11.2656C94.8203 11.2266 94.6641 11.2031 94.5234 11.1953C94.3906 11.1797 94.2344 11.1719 94.0547 11.1719C93.6641 11.1719 93.3203 11.25 93.0234 11.4062C92.7344 11.5625 92.4844 11.7812 92.2734 12.0625C92.0625 12.3438 91.8945 12.6797 91.7695 13.0703C91.6445 13.4531 91.5586 13.875 91.5117 14.3359L90.9727 14.6875C90.9727 13.9219 91.0312 13.2031 91.1484 12.5312C91.2734 11.8594 91.4648 11.2656 91.7227 10.75C91.9805 10.2266 92.3086 9.82031 92.707 9.53125C93.1133 9.23438 93.5977 9.08594 94.1602 9.08594C94.2852 9.08594 94.4375 9.10547 94.6172 9.14453C94.8047 9.17578 94.9258 9.21094 94.9805 9.25Z" fill="#BBC0C4"/>
<path d="M35.8252 25.0469H37.5615L40.1182 32.3545L42.6748 25.0469H44.4111L40.8154 35H39.4209L35.8252 25.0469ZM34.8887 25.0469H36.6182L36.9326 32.1699V35H34.8887V25.0469ZM43.6182 25.0469H45.3545V35H43.3037V32.1699L43.6182 25.0469ZM53.8311 33.4004V35H48.5332V33.4004H53.8311ZM49.2031 25.0469V35H47.1523V25.0469H49.2031ZM53.1406 29.1006V30.6592H48.5332V29.1006H53.1406ZM53.8242 25.0469V26.6533H48.5332V25.0469H53.8242ZM60.7969 31.6982H62.8408C62.7998 32.3682 62.6152 32.9629 62.2871 33.4824C61.9635 34.002 61.5101 34.4076 60.9268 34.6992C60.348 34.9909 59.6507 35.1367 58.835 35.1367C58.1969 35.1367 57.625 35.0273 57.1191 34.8086C56.6133 34.5853 56.1803 34.2663 55.8203 33.8516C55.4648 33.4368 55.1937 32.9355 55.0068 32.3477C54.82 31.7598 54.7266 31.1012 54.7266 30.3721V29.6816C54.7266 28.9525 54.8223 28.2939 55.0137 27.7061C55.2096 27.1136 55.4876 26.61 55.8477 26.1953C56.2122 25.7806 56.6475 25.4616 57.1533 25.2383C57.6592 25.015 58.2243 24.9033 58.8486 24.9033C59.6781 24.9033 60.3776 25.0537 60.9473 25.3545C61.5215 25.6553 61.9658 26.07 62.2803 26.5986C62.5993 27.1273 62.7907 27.7288 62.8545 28.4033H60.8037C60.7809 28.0023 60.7012 27.6628 60.5645 27.3848C60.4277 27.1022 60.2204 26.8903 59.9424 26.749C59.6689 26.6032 59.3044 26.5303 58.8486 26.5303C58.5068 26.5303 58.2083 26.5941 57.9531 26.7217C57.6979 26.8493 57.4837 27.043 57.3105 27.3027C57.1374 27.5625 57.0075 27.8906 56.9209 28.2871C56.8389 28.679 56.7979 29.1393 56.7979 29.668V30.3721C56.7979 30.887 56.8366 31.3405 56.9141 31.7324C56.9915 32.1198 57.11 32.4479 57.2695 32.7168C57.4336 32.9811 57.6432 33.1816 57.8984 33.3184C58.1582 33.4505 58.4704 33.5166 58.835 33.5166C59.2633 33.5166 59.6165 33.4482 59.8945 33.3115C60.1725 33.1748 60.3844 32.972 60.5303 32.7031C60.6807 32.4342 60.7695 32.0993 60.7969 31.6982Z" fill="#BBC0C4"/>
</svg>
